<?xml version="1.0" encoding="UTF-8"?>
<svg version="1.1" xmlns="http://www.w3.org/2000/svg" width="200" height="200">
<path d="M0 0 C4.75 0.875 4.75 0.875 7 2 C6.690625 2.5775 6.38125 3.155 6.0625 3.75 C5.07416636 5.84294184 4.4831387 7.74535275 4 10 C5.32 8.02 6.64 6.04 8 4 C10.475 4.495 10.475 4.495 13 5 C13 5.66 13 6.32 13 7 C14.32 7.33 15.64 7.66 17 8 C17 11.10551666 16.4606285 12.35261084 15 15 C15.99 13.68 16.98 12.36 18 11 C18.5775 11.309375 19.155 11.61875 19.75 11.9375 C22.75898141 13.39713638 22.75898141 13.39713638 26 14 C28.62713112 12.34326857 28.62713112 12.34326857 31.25 10.0625 C37.39074553 5.39357097 37.39074553 5.39357097 41.3125 5.25 C45.68569194 6.13946277 47.72229165 6.94080554 51 10 C54.99238928 16.49572527 57.15325007 22.12699384 57.0625 29.75 C57.05347656 30.73484375 57.04445313 31.7196875 57.03515625 32.734375 C57.02355469 33.48203125 57.01195313 34.2296875 57 35 C56.01 35.495 56.01 35.495 55 36 C54.55269531 35.28972656 54.10539062 34.57945313 53.64453125 33.84765625 C52.73767578 32.46900391 52.73767578 32.46900391 51.8125 31.0625 C51.22082031 30.14597656 50.62914063 29.22945312 50.01953125 28.28515625 C48.17668046 25.83105844 48.17668046 25.83105844 45.4296875 25.07421875 C42.80524508 24.76260792 42.80524508 24.76260792 40.3125 26.75 C37.08546408 29.88981874 36.04464641 31.30798063 35.75 35.875 C35.72302201 39.3146942 36.62121702 41.85943877 38 45 C37.35933594 45.268125 36.71867187 45.53625 36.05859375 45.8125 C27.30445678 49.77860677 22.10432176 54.50383728 18.625 63.5625 C17.27344924 67.70956601 16.38579024 71.65985975 16 76 C28.75379218 77.6456506 41.29414603 78.17282427 52.3125 70.25 C57.40657081 65.994194 62.27302797 61.36841879 66.1875 56 C70.13626265 51.04708465 76.61507632 48.12565496 82 45 C83.66804983 44.0023089 85.33525473 43.00319538 87 42 C82.99607505 59.64836822 65.22310292 74.06341953 51.66796875 84.85546875 C39.74872406 94.23652584 39.74872406 94.23652584 32.27734375 107.1328125 C31 109 31 109 28.1015625 109.90625 C26.95429687 110.1021875 25.80703125 110.298125 24.625 110.5 C19.75303038 111.33582323 17.09271397 112.03790561 14 116 C12.91590916 118.09675653 12.91590916 118.09675653 12.25 120.25 C11.63125 122.10625 11.63125 122.10625 11 124 C10.67 124 10.34 124 10 124 C9.71428571 116.57142857 9.71428571 116.57142857 12 113 C8.57421051 116.17539556 8.57421051 116.17539556 6 120 C5.34 120 4.68 120 4 120 C4.33 118.865625 4.66 117.73125 5 116.5625 C6.04504273 113.45623361 6.04504273 113.45623361 6 112 C4.35 113.32 2.7 114.64 1 116 C1.29097264 112.50832834 1.75539583 111.23799325 4.3125 108.75 C9.41171434 105.42958136 14.61686979 105.73092296 20.59960938 105.5703125 C23.34088152 105.4396461 25.48848579 105.32363319 27.83984375 103.8359375 C29.40666546 101.35645533 30.18923253 98.80650277 31 96 C20.05065275 96.31554315 10.3206295 97.23407914 2 105 C-1.01614813 103.8829081 -2.64508669 102.3874224 -4.625 99.9375 C-6.67119397 96.99175287 -6.67119397 96.99175287 -9 96 C-9 95.34 -9 94.68 -9 94 C-14.75762866 96.22453834 -16.38478377 98.6689823 -19 104 C-19.5534764 101.92446352 -20 100.15634036 -20 98 C-20.66 98.99 -21.32 99.98 -22 101 C-22.66 100.67 -23.32 100.34 -24 100 C-23.67 99.01 -23.34 98.02 -23 97 C-24.485 97.99 -24.485 97.99 -26 99 C-25.04996458 95.57987249 -24.13625109 94.11354257 -21.375 91.8125 C-17.53006653 89.74762832 -14.25828189 88.88102384 -10 88 C-6.7 91.63 -3.4 95.26 0 99 C1.65 98.01 3.3 97.02 5 96 C4.42408567 92.36534066 3.42946812 89.69336177 1.625 86.5 C-1.02938698 81.43460822 -2.14887711 76.49263446 -3.12890625 70.8828125 C-4.13989723 67.53702173 -5.49309852 66.36337658 -8 64 C-9.23046875 61.5625 -9.23046875 61.5625 -10.1875 59 C-10.51105469 58.154375 -10.83460937 57.30875 -11.16796875 56.4375 C-16.32589776 41.32694742 -13.13709599 24.70123663 -6.40234375 10.671875 C-4.43546964 6.97975751 -2.31997981 3.47996971 0 0 Z M12 7 C10.35 8.98 8.7 10.96 7 13 C7.33 13.66 7.66 14.32 8 15 C9.65 13.02 11.3 11.04 13 9 C12.67 8.34 12.34 7.68 12 7 Z M2 40 C3 42 3 42 3 42 Z M1 42 C2 44 2 44 2 44 Z M-1 47 C0 49 0 49 0 49 Z M-2 51 C-1 53 -1 53 -1 53 Z M-3 54 C-2 57 -2 57 -2 57 Z " fill="#505050" transform="translate(46,21)"/>
<path d="M0 0 C3.71888239 0.50712033 6.73454239 1.11608215 10 3 C8.53687491 6.90166692 6.73523694 10.54551489 4.8046875 14.23046875 C3.86201522 15.97944855 3.86201522 15.97944855 4 18 C6.64 13.71 9.28 9.42 12 5 C13.98 5.66 15.96 6.32 18 7 C17.51789063 7.72445313 17.03578125 8.44890625 16.5390625 9.1953125 C15.59160156 10.64550781 15.59160156 10.64550781 14.625 12.125 C13.99851562 13.07632812 13.37203125 14.02765625 12.7265625 15.0078125 C11.02318931 17.95981219 9.95806591 20.73870494 9 24 C12.72561343 18.70460564 16.44123747 13.40931904 20 8 C21.65 8.66 23.3 9.32 25 10 C23.14183119 13.95086377 20.72642599 17.39878363 18.2421875 20.9765625 C16.82560694 22.88835656 16.82560694 22.88835656 17 25 C22.55321629 18.91145578 22.55321629 18.91145578 27 12 C28.65 12.66 30.3 13.32 32 14 C30.37815499 17.58513106 28.20743761 20.58992323 25.875 23.75 C25.15054688 24.73484375 24.42609375 25.7196875 23.6796875 26.734375 C23.12539062 27.48203125 22.57109375 28.2296875 22 29 C25.88014936 27.47940093 27.73906562 25.13921469 30.25 21.875 C30.95640625 20.96492188 31.6628125 20.05484375 32.390625 19.1171875 C33.18726563 18.06917969 33.18726563 18.06917969 34 17 C36.96175123 17.61277612 38.38058783 18.25372522 41 20 C41 22 41 22 39.6015625 23.41015625 C38.94929688 23.95542969 38.29703125 24.50070313 37.625 25.0625 C33.54026557 28.53596255 29.54425132 32.09225682 25.56640625 35.6875 C23.89341984 37.19497025 22.21400756 38.69534877 20.52734375 40.1875 C16.07354976 44.14015394 11.85506727 48.18457057 7.75 52.5 C1.37401169 58.95749952 -5.87399192 63.70623262 -13.87304688 68.00708008 C-17.35719996 69.894939 -19.82862126 71.48079075 -22 74.8125 C-28.48010733 84.01836676 -35.52971412 89.53283646 -46.70703125 91.6875 C-53.24826294 92.57897962 -58.76105524 92.12389609 -65 90 C-62.52738828 79.06422131 -58.74172816 70.2505611 -49 64 C-42.69218589 61.15810044 -36.43091276 59.09937623 -29.5625 58.25 C-25.72501099 57.53007955 -23.91003993 56.41688401 -21.375 53.4375 C-10.55681563 37.46417143 -5.42571564 18.28288479 0 0 Z " fill="#505050" transform="translate(129,5)"/>
<path d="M0 0 C1.20250158 2.24307028 2.3869162 4.4928791 3.5625 6.75 C4.07586914 7.70132813 4.07586914 7.70132813 4.59960938 8.671875 C7.02189544 13.36964191 7.02189544 13.36964191 6.92578125 16.13671875 C5.69268735 18.61851533 4.23714061 20.80754384 2.625 23.0625 C2.01914063 23.91972656 1.41328125 24.77695313 0.7890625 25.66015625 C-1.54386513 28.71129959 -3.40208411 30.66027506 -6.75 32.5625 C-11.40017481 35.51851564 -14.07024094 40.45800667 -17 45 C-17.33 44.34 -17.66 43.68 -18 43 C-17.06421005 40.64018187 -16.06652192 38.30368736 -15 36 C-18.69418201 37.231394 -20.35109746 39.20791354 -23 42 C-23.66 41.67 -24.32 41.34 -25 41 C-23.68 39.02 -22.36 37.04 -21 35 C-22.485 35.495 -22.485 35.495 -24 36 C-25.485 36.495 -25.485 36.495 -27 37 C-26.40713468 34.33210607 -25.72218344 32.52824671 -23.47265625 30.8828125 C-19.51950894 28.79710288 -15.73526748 27.68986666 -11.375 26.75 C-6.25315976 25.44275207 -3.66671904 23.52423732 -0.83984375 19.05859375 C0.23363555 16.86644522 0.23363555 16.86644522 -0.25 13.75 C-2.355076 10.44202343 -4.68136016 9.02004164 -8 7 C-8 6.34 -8 5.68 -8 5 C-2.52380952 0 -2.52380952 0 0 0 Z " fill="#505050" transform="translate(108,99)"/>
<path d="M0 0 C1.47919922 0.06960937 1.47919922 0.06960937 2.98828125 0.140625 C3.98214844 0.17671875 4.97601563 0.2128125 6 0.25 C7.13888672 0.31960937 7.13888672 0.31960937 8.30078125 0.390625 C8.38164501 3.32867496 8.44120955 6.26450575 8.48828125 9.203125 C8.51341797 10.03650391 8.53855469 10.86988281 8.56445312 11.72851562 C8.57895508 12.93217773 8.57895508 12.93217773 8.59375 14.16015625 C8.61731567 15.26774292 8.61731567 15.26774292 8.64135742 16.39770508 C8.20441846 18.95450273 7.32911659 19.8236078 5.30078125 21.390625 C3.0390625 21.68359375 3.0390625 21.68359375 0.61328125 21.578125 C-0.19496094 21.55105469 -1.00320312 21.52398437 -1.8359375 21.49609375 C-2.45082031 21.46128906 -3.06570312 21.42648438 -3.69921875 21.390625 C-3.69921875 20.400625 -3.69921875 19.410625 -3.69921875 18.390625 C-2.56484375 18.266875 -1.43046875 18.143125 -0.26171875 18.015625 C0.91390625 17.809375 2.08953125 17.603125 3.30078125 17.390625 C3.63078125 16.730625 3.96078125 16.070625 4.30078125 15.390625 C3.20765625 15.473125 2.11453125 15.555625 0.98828125 15.640625 C-2.69921875 15.390625 -2.69921875 15.390625 -4.63671875 13.828125 C-6.09781296 10.47620299 -6.08714225 8.01124433 -5.69921875 4.390625 C-4.09957826 1.37324293 -3.43892181 0.4976732 0 0 Z M-0.69921875 3.390625 C-2.11499352 4.57486826 -2.11499352 4.57486826 -1.76171875 7.953125 C-1.74109375 9.0875 -1.72046875 10.221875 -1.69921875 11.390625 C0.77578125 11.885625 0.77578125 11.885625 3.30078125 12.390625 C5.63469328 9.60948444 5.63469328 9.60948444 4.92578125 6.703125 C4.71953125 5.94 4.51328125 5.176875 4.30078125 4.390625 C2.64463468 4.00843733 0.97621101 3.67667398 -0.69921875 3.390625 Z " fill="#505050" transform="translate(86.69921875,148.609375)"/>
<path d="M0 0 C8.30078125 -0.390625 8.30078125 -0.390625 11 0 C13.63284295 2.58231931 13.97461816 3.76310282 14.375 7.5 C13.81462799 12.73013871 13.81462799 12.73013871 11 15 C7.3125 15.25 7.3125 15.25 4 15 C3.67 16.98 3.34 18.96 3 21 C2.01 21 1.02 21 0 21 C0 14.07 0 7.14 0 0 Z M5 3 C2.66608797 5.78114056 2.66608797 5.78114056 3.375 8.6875 C3.58125 9.450625 3.7875 10.21375 4 11 C5.65 11.33 7.3 11.66 9 12 C11.33391203 9.21885944 11.33391203 9.21885944 10.625 6.3125 C10.41875 5.549375 10.2125 4.78625 10 4 C8.35 3.67 6.7 3.34 5 3 Z " fill="#505050" transform="translate(150,149)"/>
<path d="M0 0 C8.30078125 -0.390625 8.30078125 -0.390625 11 0 C13.63284295 2.58231931 13.97461816 3.76310282 14.375 7.5 C13.81462799 12.73013871 13.81462799 12.73013871 11 15 C7.3125 15.25 7.3125 15.25 4 15 C3.67 16.98 3.34 18.96 3 21 C2.01 21 1.02 21 0 21 C0 14.07 0 7.14 0 0 Z M5 3 C2.66608797 5.78114056 2.66608797 5.78114056 3.375 8.6875 C3.58125 9.450625 3.7875 10.21375 4 11 C5.65 11.33 7.3 11.66 9 12 C11.33391203 9.21885944 11.33391203 9.21885944 10.625 6.3125 C10.41875 5.549375 10.2125 4.78625 10 4 C8.35 3.67 6.7 3.34 5 3 Z " fill="#505050" transform="translate(133,149)"/>
<path d="M0 0 C3.37919987 -0.2852983 6.62727503 -0.40733393 10 0 C12.68094207 2.36553712 12.94076662 4.05371063 13.16015625 7.55859375 C13.18488245 10.04887508 13.13036161 12.51347297 13 15 C11.04196493 15.05389087 9.08351091 15.09274217 7.125 15.125 C6.03445312 15.14820313 4.94390625 15.17140625 3.8203125 15.1953125 C1 15 1 15 -1 13 C-1.25 10.5 -1.25 10.5 -1 8 C1 6 1 6 2.9453125 5.8046875 C4.96354167 5.86979167 6.98177083 5.93489583 9 6 C8.67 5.34 8.34 4.68 8 4 C6.10466658 3.53476937 6.10466658 3.53476937 3.9375 3.375 C2.638125 3.25125 1.33875 3.1275 0 3 C0 2.01 0 1.02 0 0 Z M3 9 C3 9.99 3 10.98 3 12 C4.65 12 6.3 12 8 12 C8.33 10.68 8.66 9.36 9 8 C6.84365964 8 5.07553648 8.4465236 3 9 Z " fill="#515151" transform="translate(116,149)"/>
<path d="M0 0 C3.37919987 -0.2852983 6.62727503 -0.40733393 10 0 C12.68094207 2.36553712 12.94076662 4.05371063 13.16015625 7.55859375 C13.18488245 10.04887508 13.13036161 12.51347297 13 15 C11.04196493 15.05389087 9.08351091 15.09274217 7.125 15.125 C6.03445312 15.14820313 4.94390625 15.17140625 3.8203125 15.1953125 C1 15 1 15 -1 13 C-1.25 10.5 -1.25 10.5 -1 8 C1 6 1 6 2.9453125 5.8046875 C4.96354167 5.86979167 6.98177083 5.93489583 9 6 C8.67 5.34 8.34 4.68 8 4 C6.10466658 3.53476937 6.10466658 3.53476937 3.9375 3.375 C2.638125 3.25125 1.33875 3.1275 0 3 C0 2.01 0 1.02 0 0 Z M3 9 C3 9.99 3 10.98 3 12 C4.65 12 6.3 12 8 12 C8.33 10.68 8.66 9.36 9 8 C6.84365964 8 5.07553648 8.4465236 3 9 Z " fill="#515151" transform="translate(48,149)"/>
<path d="M0 0 C1.21816406 0.03480469 1.21816406 0.03480469 2.4609375 0.0703125 C3.68683594 0.09738281 3.68683594 0.09738281 4.9375 0.125 C5.87722656 0.15980469 5.87722656 0.15980469 6.8359375 0.1953125 C6.8359375 1.1853125 6.8359375 2.1753125 6.8359375 3.1953125 C4.5259375 3.1953125 2.2159375 3.1953125 -0.1640625 3.1953125 C1.45960216 6.44264182 4.58981589 6.89686386 7.8359375 8.1953125 C7.9609375 10.5703125 7.9609375 10.5703125 7.8359375 13.1953125 C5.8359375 15.1953125 5.8359375 15.1953125 3.453125 15.390625 C2.54820312 15.36742187 1.64328125 15.34421875 0.7109375 15.3203125 C-0.65417969 15.29324219 -0.65417969 15.29324219 -2.046875 15.265625 C-2.74554688 15.24242187 -3.44421875 15.21921875 -4.1640625 15.1953125 C-4.1640625 14.2053125 -4.1640625 13.2153125 -4.1640625 12.1953125 C-1.5240625 11.8653125 1.1159375 11.5353125 3.8359375 11.1953125 C1.1959375 9.8753125 -1.4440625 8.5553125 -4.1640625 7.1953125 C-4.2890625 4.8203125 -4.2890625 4.8203125 -4.1640625 2.1953125 C-2.1640625 0.1953125 -2.1640625 0.1953125 0 0 Z " fill="#4F4F4F" transform="translate(170.1640625,148.8046875)"/>
<path d="M0 0 C0.99 0 1.98 0 3 0 C3.33 3.96 3.66 7.92 4 12 C5.65 11.34 7.3 10.68 9 10 C9.33 6.7 9.66 3.4 10 0 C10.99 0 11.98 0 13 0 C13 4.95 13 9.9 13 15 C4.6015625 15.1953125 4.6015625 15.1953125 2 15 C0 13 0 13 -0.1953125 9.9609375 C-0.17210938 8.77757812 -0.14890625 7.59421875 -0.125 6.375 C-0.10695313 5.18648437 -0.08890625 3.99796875 -0.0703125 2.7734375 C-0.04710938 1.85820312 -0.02390625 0.94296875 0 0 Z " fill="#4F4F4F" transform="translate(99,149)"/>
<path d="M0 0 C8.3984375 -0.1953125 8.3984375 -0.1953125 11 0 C13 2 13 2 13.1953125 5.0390625 C13.17210938 6.22242188 13.14890625 7.40578125 13.125 8.625 C13.10695313 9.81351563 13.08890625 11.00203125 13.0703125 12.2265625 C13.04710938 13.14179688 13.02390625 14.05703125 13 15 C12.01 15 11.02 15 10 15 C9.67 11.37 9.34 7.74 9 4 C7.68 4 6.36 4 5 4 C3.85185003 6.29629994 3.69230191 8.07698086 3.4375 10.625 C3.35371094 11.44226563 3.26992187 12.25953125 3.18359375 13.1015625 C3.12300781 13.72804687 3.06242187 14.35453125 3 15 C2.01 15 1.02 15 0 15 C0 10.05 0 5.1 0 0 Z " fill="#505050" transform="translate(65,149)"/>
<path d="M0 0 C1.32 0 2.64 0 4 0 C4 5.94 4 11.88 4 18 C6.97 18 9.94 18 13 18 C13 18.66 13 19.32 13 20 C8.71 20 4.42 20 0 20 C0 13.4 0 6.8 0 0 Z " fill="#505050" transform="translate(33,144)"/>
</svg>
